<mxfile host="app.diagrams.net" modified="2023-10-25T22:49:27.329Z" agent="Mozilla/5.0 (Windows NT 10.0; Win64; x64) AppleWebKit/537.36 (KHTML, like Gecko) Chrome/118.0.0.0 Safari/537.36" version="21.8.2" etag="yCwcawvNf4kAo8Rc4td2" type="github">
  <diagram name="PÃ¡gina-1" id="7eVQgHGBuA7kh0AekPRh">
    <mxGraphModel>
      <root>
        <mxCell id="0" />
        <mxCell id="1" parent="0" />
      </root>
    </mxGraphModel>
  </diagram>
</mxfile>
